<?xml version="1.0" standalone="no"?>
<!DOCTYPE svg PUBLIC "-//W3C//DTD SVG 1.1//EN" "http://www.w3.org/Graphics/SVG/1.1/DTD/svg11.dtd" >
<svg xmlns="http://www.w3.org/2000/svg">
<metadata>
This is a custom SVG webfont generated by Font Squirrel.
Copyright   : Copyright c 1989 Adobe Systems Incorporated All rights reservedRockwell is trademark of the Monotype Corporation plc
</metadata>
<defs>
<font id="RockwellBold" horiz-adv-x="724" >
<font-face units-per-em="2048" ascent="1638" descent="-410" />
<missing-glyph horiz-adv-x="512" />
<glyph unicode=" "  horiz-adv-x="512" />
<glyph unicode="&#x09;" horiz-adv-x="512" />
<glyph unicode="&#xa0;" horiz-adv-x="512" />
<glyph unicode="!" d="M199 0v336h336v-336h-336zM205 1010v381h309v-381l-78 -525h-145z" />
<glyph unicode="&#x22;" horiz-adv-x="1130" d="M176 1264q0 63 43 107t107 44q61 0 104 -43t43 -104q0 -43 -24 -135l-99 -383h-49l-104 383q-21 86 -21 131zM657 1266q0 61 44 105t108 44q59 0 102 -43t43 -102q0 -37 -26 -137l-97 -383h-49l-100 383q-25 86 -25 133z" />
<glyph unicode="#" horiz-adv-x="1368" d="M74 328v215h205l55 276h-260v215h301l84 375h215l-82 -375h328l79 375h218l-82 -375h159v-215h-200l-58 -276h258v-215h-299l-80 -371h-217l82 371h-331l-78 -371h-217l79 371h-159zM494 545h327l58 274h-330z" />
<glyph unicode="$" horiz-adv-x="1153" d="M90 389h248v-16q0 -72 36 -123t99 -68v424l-22 10q-178 84 -257 177.5t-79 218.5q0 139 99 235t259 111v51h141v-51q180 -18 280.5 -113.5t100.5 -247.5v-8h-247q-18 156 -134 170v-332q20 -8 29 -14q139 -61 185 -87t94 -69q133 -119 133 -295q0 -168 -122 -274 t-319 -111v-174h-141v174q-246 37 -328 193q-29 53 -38 92t-17 127zM360 1040q0 -45 24 -77.5t89 -73.5v268q-113 -21 -113 -117zM614 174h13q76 0 131 49t55 117q0 131 -199 205v-371z" />
<glyph unicode="%" horiz-adv-x="1898" d="M78 1042.5q0 180.5 75.5 276.5t221.5 96q141 0 217 -96t76 -276.5t-76 -275.5t-219.5 -95t-219 95t-75.5 275.5zM291 1044q0 -246 80 -245q84 0 84 243.5t-82 243.5t-82 -242zM358 0l1008 1391h178l-1007 -1391h-179zM1237 362.5q0 180.5 76 276.5t219 96q141 0 217 -96 t76 -276.5t-76 -275.5t-217 -95q-143 0 -219 95t-76 275.5zM1448 365q0 -246 82 -246q84 0 84 243.5t-82 243.5q-84 1 -84 -241z" />
<glyph unicode="&#x26;" horiz-adv-x="1642" d="M76 403q0 217 235 367q55 37 150 82q-109 129 -109 254q0 139 103.5 223t273.5 84q162 0 267.5 -81t105.5 -204q0 -193 -242 -315l199 -252q119 162 172 291h330v-225h-170q-80 -164 -170 -260l114 -144h226v-223h-414l-125 154q-201 -178 -451 -179q-213 0 -354 122 t-141 306zM395 449q0 -88 67.5 -149.5t166.5 -61.5q119 0 237 110l-264 334q-207 -88 -207 -233zM631 1141q0 -39 76 -135l16 -19q133 59 133 141q0 41 -34 71t-81 30t-78.5 -25.5t-31.5 -62.5z" />
<glyph unicode="'" horiz-adv-x="575" d="M141 1262q0 66 42 109.5t104 43.5q63 0 106 -43t43 -104q0 -47 -24 -135l-99 -383h-49l-104 383q-19 72 -19 129z" />
<glyph unicode="(" horiz-adv-x="704" d="M94 487q0 473 283 750q80 76 129 107.5t141 64.5v-199q-170 -90 -215 -372q-20 -121 -20 -353q0 -227 20 -354q14 -106 60 -201q33 -72 63.5 -104.5t91.5 -65.5v-196q-127 45 -242.5 146.5t-187.5 230.5q-123 227 -123 546z" />
<glyph unicode=")" horiz-adv-x="704" d="M53 -233q170 90 215 370q20 121 21 355q0 225 -21 354q-14 106 -59 201q-33 70 -62.5 102.5t-93.5 67.5v200q127 -45 243 -147.5t187 -233.5q123 -223 123 -544q0 -340 -141 -578t-412 -350v203z" />
<glyph unicode="*" horiz-adv-x="1173" d="M78 928l80 233l166 -55q31 -45 72.5 -75t135.5 -77l-2 25q-16 154 -69 242v170h244v-170q-72 -111 -72 -250v-17l26 15l70 35q86 43 125 102l160 55l78 -233l-156 -58q-63 16 -102 17q-53 0 -168 -29q102 -119 215 -160l102 -139l-199 -141l-106 141q0 102 -96 240 q-82 -133 -82 -240l-99 -141l-200 141l98 139q90 31 195 146l14 14l-21 4l-67 12q-27 8 -78 9q-49 0 -96 -13z" />
<glyph unicode="+" horiz-adv-x="1368" d="M121 557v248h438v440h248v-440h438v-248h-438v-436h-248v436h-438z" />
<glyph unicode="," d="M197 0v334h333v-309q0 -150 -30.5 -229t-104.5 -120q-51 -27 -86 -35t-106 -8h-6v152q88 10 125.5 57t37.5 146v12h-163z" />
<glyph unicode="-" horiz-adv-x="704" d="M68 348v270h559v-270h-559z" />
<glyph unicode="." d="M195 0v336h333v-336h-333z" />
<glyph unicode="/" horiz-adv-x="1040" d="M8 -18l740 1433h284l-737 -1433h-287z" />
<glyph unicode="0" horiz-adv-x="1130" d="M92 698.5q0 348.5 123 532.5t354.5 184t354.5 -184t123 -532.5t-123 -532.5t-354.5 -184t-354.5 184t-123 532.5zM410 698q0 -221 39 -372q31 -119 118 -119q94 0 123 119q41 164 41 372q0 219 -41 373q-29 119 -121 119t-120 -119q-39 -156 -39 -373z" />
<glyph unicode="1" horiz-adv-x="1130" d="M221 1167v224h510v-1168h182v-223h-680v223h193v944h-205z" />
<glyph unicode="2" horiz-adv-x="1130" d="M90 0q0 156 15.5 231.5t64.5 167.5q74 133 180 232l111 102q104 96 147 156q57 76 58 162q0 63 -38 105t-96 42q-82 0 -121.5 -69.5t-45.5 -223.5l-256 13l2 26q2 180 65 283q117 188 381 188q190 0 308 -106.5t118 -276.5q0 -145 -90 -254q-49 -57 -105 -98 q-23 -18 -112 -82q-141 -102 -195 -158q-39 -41 -65 -88q-39 -61 -51 -129h405v180h223l-12 -403h-891z" />
<glyph unicode="3" horiz-adv-x="1130" d="M90 426l268 20q2 -117 49.5 -181t133.5 -64q80 0 132 59t50 152q0 98 -52.5 152t-148.5 54h-43l-16 -2v234q109 2 168 49t59 135q0 70 -41 113t-106 43q-70 0 -110 -45t-40 -125v-14l-260 20q10 184 123 286.5t309.5 102.5t311 -98t114.5 -268q0 -213 -207 -316 q258 -86 258 -334q0 -190 -130 -304.5t-345 -114.5q-440 0 -477 446z" />
<glyph unicode="4" horiz-adv-x="1130" d="M6 561l598 854h275v-842h135v-190h-135v-178h118v-205h-559v205h154v178h-510l-6 14q-29 86 -70 164zM246 573h346v484h-4z" />
<glyph unicode="5" horiz-adv-x="1130" d="M74 373l262 33q16 -106 59 -153.5t125 -47.5q88 0 137.5 60.5t49.5 170.5q0 248 -181 248q-100 0 -168 -109l-221 111l39 705h782v-328h-202l-21 104h-358l-19 -333q115 80 238 79q193 0 310.5 -125.5t117.5 -330.5q0 -221 -130 -348t-355 -127q-199 0 -318.5 100.5 t-146.5 290.5z" />
<glyph unicode="6" horiz-adv-x="1130" d="M92 684q0 485 225 643q131 90 291 90q227 0 326 -155q33 -51 46 -91.5t24 -126.5l-240 -20q-43 176 -162 176q-94 0 -150.5 -108.5t-58.5 -290.5q102 90 246 90q174 0 277.5 -117t103.5 -315q0 -227 -111.5 -352t-314.5 -125q-256 0 -379 172t-123 530zM393 604 q0 -53 8 -137q14 -137 59.5 -199.5t127.5 -62.5q72 0 110.5 61.5t38.5 173.5q0 102 -46 163t-124 61q-90 -1 -174 -60z" />
<glyph unicode="7" horiz-adv-x="1130" d="M139 979v412h869v-172q-158 -197 -269 -629q-49 -193 -51 -367h176v-223h-671v223h176q12 209 112.5 483.5t237.5 467.5h-357v-195h-223z" />
<glyph unicode="8" horiz-adv-x="1130" d="M82 391q0 246 248 340q-207 113 -207 320q0 166 122 265t324 99q205 0 325 -97t120 -261q0 -129 -76 -223q-43 -57 -125 -103q242 -94 242 -344q0 -193 -129 -299t-361 -106q-225 0 -354 109.5t-129 299.5zM381 413.5q0 -96.5 52 -155.5t138 -59q84 0 136.5 58t52.5 155 q0 98 -52.5 159.5t-136.5 61.5t-137 -61.5t-53 -158zM406 1012q0 -82 45 -133.5t118.5 -51.5t117.5 51.5t44 135.5q0 86 -43 135t-119 49q-76 2 -119.5 -48t-43.5 -138z" />
<glyph unicode="9" horiz-adv-x="1130" d="M88 944q0 213 122 342t322 129q248 0 368 -175t120 -540q0 -719 -512 -718q-176 0 -278.5 97t-118.5 277l237 23q25 -94 63 -136t97 -42q186 0 211 397q-115 -88 -258 -88q-164 0 -268.5 122t-104.5 312zM369 963q0 -109 47 -169.5t129 -60.5q76 0 174 64q2 4 2 10 q0 178 -55.5 282.5t-149.5 104.5q-68 0 -107.5 -62.5t-39.5 -168.5z" />
<glyph unicode=":" d="M197 0v336h333v-336h-333zM197 635v332h333v-332h-333z" />
<glyph unicode=";" d="M195 0v334h335v-309q0 -152 -30.5 -231t-106.5 -118q-51 -27 -86 -35t-112 -8v152q88 10 125.5 58t37.5 145v12h-163zM195 643v334h335v-334h-335z" />
<glyph unicode="&#x3c;" horiz-adv-x="1366" d="M121 569v224l1124 467v-267l-784 -311l784 -311v-269z" />
<glyph unicode="=" horiz-adv-x="1366" d="M121 317v248h1124v-248h-1124zM121 799v248h1124v-248h-1124z" />
<glyph unicode="&#x3e;" horiz-adv-x="1366" d="M121 102v269l784 311l-784 311v267l1124 -465v-224z" />
<glyph unicode="?" horiz-adv-x="1153" d="M55 993v11q0 188 136.5 299.5t365.5 111.5q223 0 355 -109.5t132 -297.5q0 -170 -108.5 -276.5t-280.5 -106.5q-4 0 -18 1t-25 1l-32 -146h-144l-28 369q49 -18 104 -19q96 0 155.5 51.5t59.5 133.5t-53 133t-137 51q-82 0 -129.5 -45t-47.5 -121q0 -23 5 -41h-310z M340 0v336h334v-336h-334z" />
<glyph unicode="@" horiz-adv-x="2004" d="M61 481q0 256 112 483.5t298 352.5q258 174 614 174q379 0 615.5 -212t236.5 -552q0 -299 -193.5 -513t-461.5 -214q-84 0 -128 26.5t-60 88.5q-115 -115 -273 -115q-172 0 -277.5 118t-105.5 310q0 145 60.5 287.5t163.5 242.5q131 125 315 125q182 0 266 -135l25 111 h264l-152 -717q-14 -63 -14 -88q0 -49 39 -49q33 0 85 30.5t97 77.5q170 180 170 418q0 262 -185.5 420t-490.5 158q-276 0 -469.5 -117t-289.5 -342q-78 -184 -78 -381q0 -332 227 -524.5t619 -192.5q477 0 688 266h213q-106 -217 -333.5 -332.5t-551.5 -115.5 q-489 0 -767 241.5t-278 669.5zM696 416q0 -106 49.5 -170t131.5 -64q90 0 159 70q66 66 109 184.5t43 233.5q0 109 -50.5 171t-136.5 62q-127 0 -211.5 -133t-93.5 -340v-14z" />
<glyph unicode="A" horiz-adv-x="1429" d="M-4 0v236h172l272 919h-186v236h907v-236h-186l291 -919h168v-236h-684v236h178l-68 237h-360l-74 -237h186v-236h-616zM563 678h242l-115 420h-4z" />
<glyph unicode="B" horiz-adv-x="1429" d="M68 0v236h172v919h-172v236h634q166 0 242 -10.5t137 -39.5q84 -39 136.5 -127t52.5 -188q0 -129 -80 -213q-37 -39 -117 -74q250 -95 250 -330q0 -114 -57.5 -209.5t-151.5 -138.5q-78 -37 -163 -50t-249 -13zM602 236h100q141 0 195.5 39.5t54.5 146.5q0 88 -54 136 t-153 48h-43h-100v-370zM602 842h100q113 0 160 36.5t47 125.5q0 84 -49 117.5t-170 33.5h-88v-313z" />
<glyph unicode="C" horiz-adv-x="1599" d="M76 696q0 319 202.5 518t530.5 199q248 0 416 -131v109h235v-490h-235q-98 264 -346 264q-186 0 -300 -129t-114 -342q0 -203 109.5 -329.5t283.5 -126.5q143 0 244.5 95t140.5 265l275 -131q-29 -94 -51.5 -139t-67.5 -103q-190 -242 -568 -241q-350 0 -552.5 191 t-202.5 521z" />
<glyph unicode="D" horiz-adv-x="1642" d="M68 0v236h211v919h-211v236h659q199 0 300 -17.5t198 -68.5q158 -86 247 -248t89 -365q0 -184 -77 -341.5t-206 -241.5q-113 -72 -199 -91.5t-311 -19.5zM639 236h88q129 0 180 11t115 54q160 109 160 389q0 272 -158 393q-59 43 -119.5 57.5t-177.5 14.5h-88v-919z" />
<glyph unicode="E" horiz-adv-x="1366" d="M68 0v236h165v919h-165v236h1224v-441h-264v205h-432v-319h348v-236h-348v-364h432v206h264v-442h-1224z" />
<glyph unicode="F" horiz-adv-x="1323" d="M57 0v236h199v919h-199v236h1246v-428h-267v192h-418v-321h302v-236h-302v-362h216v-236h-777z" />
<glyph unicode="G" horiz-adv-x="1728" d="M98 698q0 315 206 515t532 200q281 0 436 -137v115h235v-494h-235q-41 123 -145.5 195.5t-237.5 72.5q-180 0 -291 -122.5t-111 -321.5q0 -219 113 -352t299 -133q121 0 205 60t117 171h-246v235h653v-26q0 -236 -98 -387q-100 -145 -271.5 -226t-386.5 -81 q-352 0 -563 195t-211 521z" />
<glyph unicode="H" horiz-adv-x="1556" d="M63 0v236h173v919h-173v236h672v-236h-147v-305h379v305h-140v236h668v-236h-176v-919h176v-236h-668v236h140v378h-379v-378h147v-236h-672z" />
<glyph unicode="I" horiz-adv-x="874" d="M41 0v236h211v919h-211v236h786v-236h-213v-919h213v-236h-786z" />
<glyph unicode="J" horiz-adv-x="831" d="M-2 -152q68 -16 102 -16q88 0 123 46t35 161v1116h-207v236h758v-236h-188v-1128q0 -219 -106.5 -337t-307.5 -118q-92 0 -209 25v251z" />
<glyph unicode="K" horiz-adv-x="1599" d="M41 0v236h188v919h-188v236h727v-236h-176v-919h162v-236h-713zM602 731l455 424h-168v236h680v-236h-170l-391 -383l456 -536h144v-236h-748v236h162z" />
<glyph unicode="L" horiz-adv-x="1323" d="M57 0v236h199v919h-199v236h764v-236h-203v-919h412v430h270v-666h-1243z" />
<glyph unicode="M" horiz-adv-x="2134" d="M55 0v236h181v919h-181v236h697l307 -816l305 816h711v-236h-181v-919h181v-236h-701v236h170v919h-33l-432 -1155h-149l-436 1155h-33v-919h182v-236h-588z" />
<glyph unicode="N" horiz-adv-x="1622" d="M61 0v236h185v919h-185v236h582l510 -869h4v633h-182v236h624v-236h-194v-1165h-311l-594 1032h-4v-786h174v-236h-609z" />
<glyph unicode="O" horiz-adv-x="1748" d="M100 698.5q0 319.5 214 517t560.5 197.5t559.5 -197.5t213 -517t-213 -517t-559.5 -197.5t-560.5 197.5t-214 517zM492 692q0 -203 106.5 -329.5t275.5 -126.5q172 0 277.5 128t105.5 334.5t-105 333.5t-278 127q-174 0 -278 -128t-104 -339z" />
<glyph unicode="P" horiz-adv-x="1366" d="M59 0v236h179v919h-179v236h734q252 0 393 -118t141 -325q0 -131 -61.5 -234.5t-167.5 -150.5q-82 -37 -147.5 -47t-219.5 -10h-133v-270h195v-236h-734zM598 737h55q106 0 181 23q51 18 81.5 68.5t30.5 117.5q0 59 -26.5 110.5t-67.5 73.5q-43 25 -113 25h-73h-68v-418z " />
<glyph unicode="Q" horiz-adv-x="1748" d="M100 694q0 322 214 520.5t560.5 198.5t559.5 -198.5t213 -520.5q0 -195 -89.5 -356.5t-250.5 -255.5q-78 -45 -147.5 -65.5t-196.5 -34.5v-5l88 -30l61 -27q113 -47 213 -47q31 0 59 4l-86 -225h-36q-66 0 -129.5 20.5t-198.5 87.5q-141 70 -223 70q-106 0 -205 -84 l-88 139q82 92 229 113v4q-252 59 -399.5 246.5t-147.5 445.5zM492 688q0 -203 106.5 -330t275.5 -127q174 0 278.5 128t104.5 341q0 205 -106.5 332t-276.5 127q-174 0 -278 -129t-104 -342z" />
<glyph unicode="R" horiz-adv-x="1492" d="M47 0v236h191v919h-191v236h840q172 0 272 -64q80 -49 127 -137t47 -189q0 -154 -102 -256q-53 -53 -139 -90l225 -419h180v-236h-424l-313 610h-160v-374h174v-236h-727zM600 831h125q229 0 229 164q0 160 -196 160h-158v-324z" />
<glyph unicode="S" horiz-adv-x="1087" d="M82 1026q0 164 105.5 271.5t267.5 107.5q168 0 252 -129h4v115h235v-422h-235q-12 94 -65.5 149.5t-133.5 55.5q-57 0 -97 -33t-40 -80q0 -53 46 -92t179 -99q190 -84 274 -153q141 -123 142 -320q0 -248 -182 -356q-104 -57 -222 -57q-188 0 -278 133h-4v-117h-236v473 h236q4 -119 60 -185.5t153 -66.5q63 0 107 43t44 107q0 111 -139 176l-119 59q-164 78 -248 156q-106 100 -106 264z" />
<glyph unicode="T" horiz-adv-x="1386" d="M68 831v560h1259v-560h-233v324h-217v-919h210v-236h-780v236h209v919h-209v-324h-239z" />
<glyph unicode="U" horiz-adv-x="1386" d="M31 1155v236h663v-236h-137v-606q0 -152 16 -205q16 -47 61.5 -75.5t102.5 -28.5q111 0 160 75q20 33 26.5 80t6.5 170v590h-135v236h553v-236h-170v-674q0 -158 -12.5 -212t-63.5 -113q-129 -152 -404 -152q-313 0 -434 178q-47 72 -58 130.5t-11 236.5v606h-164z" />
<glyph unicode="V" horiz-adv-x="1429" d="M-2 1155v236h709v-236h-181l234 -696h4l233 696h-178v236h615v-236h-168l-400 -1163h-288l-414 1163h-166z" />
<glyph unicode="W" horiz-adv-x="2027" d="M-2 1155v236h627v-236h-144l224 -668h4l211 668h-127v236h499v-236h-129l226 -668h4l219 668h-139v236h557v-236h-152l-385 -1163h-260l-217 633h-4l-205 -633h-264l-398 1163h-147z" />
<glyph unicode="X" horiz-adv-x="1515" d="M-4 0v236h205l340 479l-340 440h-191v236h715v-222h-133l207 -260l188 260h-125v222h617v-236h-193l-332 -455l365 -464h201v-236h-738v225h138l-218 285l-206 -285h143v-225h-643z" />
<glyph unicode="Y" horiz-adv-x="1429" d="M-4 1155v236h696v-236h-137l203 -340l207 340h-142v236h613v-236h-172l-359 -545v-374h193v-236h-752v236h197v374l-377 545h-170z" />
<glyph unicode="Z" horiz-adv-x="1323" d="M102 0v236l660 919h-387v-252h-236v488h1075v-209l-679 -946h456v266h236v-502h-1125z" />
<glyph unicode="[" horiz-adv-x="854" d="M225 -416v1807h566v-207h-256v-1397h256v-203h-566z" />
<glyph unicode="\" horiz-adv-x="1040" d="M8 1415h285l739 -1433h-287z" />
<glyph unicode="]" horiz-adv-x="854" d="M63 -213h250v1397h-250v207h560v-1807h-560v203z" />
<glyph unicode="^" horiz-adv-x="1193" d="M150 674l411 717h82l404 -717h-160l-295 512l-289 -512h-153z" />
<glyph unicode="_" horiz-adv-x="1024" d="M-18 -311h1060v-131h-1060v131z" />
<glyph unicode="`" horiz-adv-x="681" d="M43 1362h313l140 -299h-179z" />
<glyph unicode="a" horiz-adv-x="1193" d="M84 289q0 141 111.5 233t283.5 92q92 0 221 -47v58q0 76 -50 123t-134 47q-100 0 -176 -78l-250 45q113 231 469 231q289 0 389 -139q39 -51 50.5 -105.5t11.5 -173.5v-352h157v-223h-467v76q-127 -90 -264 -90q-152 0 -252 86t-100 217zM383 307q0 -55 36 -92t89 -37 q82 0 192 101v79l-16 11q-102 59 -162 59q-61 0 -100 -34t-39 -87z" />
<glyph unicode="b" horiz-adv-x="1280" d="M29 0v223h164v944h-164v224h477v-531q66 72 129 101.5t147 29.5q186 0 302 -140t116 -365.5t-113.5 -362.5t-300.5 -137q-156 0 -280 125v-111h-477zM504 481q0 -117 51 -186.5t139 -69.5t138.5 71t50.5 196q0 119 -48.5 184t-138.5 65q-92 0 -142 -68.5t-50 -191.5z" />
<glyph unicode="c" horiz-adv-x="1153" d="M66 485q0 217 138 357.5t351 140.5q152 0 295 -94v78h211v-392h-221q-74 162 -234 162q-102 0 -162.5 -66.5t-60.5 -181.5q0 -127 58.5 -197.5t160.5 -70.5q74 0 139.5 42t108.5 114l240 -107q-133 -293 -472 -293q-250 0 -401 139.5t-151 368.5z" />
<glyph unicode="d" horiz-adv-x="1280" d="M78 489q0 213 120.5 357.5t299.5 144.5q166 0 278 -129v305h-151v224h465v-1168h153v-223h-467v115q-131 -129 -280 -129q-178 0 -298 144t-120 359zM395 487.5q0 -118.5 51.5 -188.5t139.5 -70q92 0 142 68t50 190q0 121 -51 188.5t-141 67.5t-140.5 -68.5t-50.5 -187z " />
<glyph unicode="e" horiz-adv-x="1173" d="M74 467q0 229 148.5 376.5t377.5 147.5q225 0 363.5 -149.5t138.5 -395.5v-26h-721q6 -82 29.5 -126t81.5 -79q57 -37 133 -37q61 0 109 24.5t116 90.5l240 -78q-55 -88 -142 -145q-143 -92 -330 -93q-250 0 -397 132.5t-147 357.5zM385 592h406q-12 90 -67.5 142 t-139.5 52q-172 1 -199 -194z" />
<glyph unicode="f" d="M59 0v223h142v520h-131v224h131v90q0 166 101 262t273 96q223 0 324 -135l-223 -176q-18 57 -39 80.5t-49 23.5q-78 0 -78 -135v-106h152v-224h-152v-520h152v-223h-603z" />
<glyph unicode="g" horiz-adv-x="1280" d="M78 485q0 213 119.5 355.5t300.5 142.5q172 0 274 -133h4v117h469v-224h-160v-714q0 -479 -507 -480q-291 0 -431 107l150 203q123 -72 240 -72q66 0 121 25.5t81 66.5q37 55 37 168v74q-154 -131 -295 -131q-172 0 -287.5 142t-115.5 353zM395 485.5q0 -114.5 51.5 -182 t137.5 -67.5t139 67.5t53 177.5q0 117 -51 184.5t-141 67.5h-5q-84 0 -134 -65q-50 -68 -50 -182.5z" />
<glyph unicode="h" horiz-adv-x="1280" d="M55 0v223h148v944h-148v224h465v-502q88 61 144.5 81.5t130.5 20.5q90 0 159.5 -39t102.5 -108q23 -49 29 -84t6 -125v-412h141v-223h-451v621q0 66 -22.5 92t-75.5 26q-70 0 -164 -61v-455h137v-223h-602z" />
<glyph unicode="i" d="M86 0v223h143v520h-143v224h457v-744h143v-223h-600zM221 1245.5q0 69.5 49 119.5t121 50q70 0 119 -50t49 -119.5t-49 -120t-119 -50.5q-72 0 -121 50.5t-49 120z" />
<glyph unicode="j" d="M-14 -174q27 -4 57 -4q115 0 149.5 33.5t34.5 144.5v743h-147v224h459v-936v-68q0 -125 -35 -205q-49 -113 -164 -151q-98 -35 -244 -35q-70 0 -110 4v250zM207 1239q0 70 49 119t119 49q72 0 121 -49t49 -119q0 -72 -49.5 -121t-120.5 -49q-70 2 -119 51t-49 119z" />
<glyph unicode="k" horiz-adv-x="1323" d="M72 0v223h149v944h-149v224h465v-879l331 266v4h-204v185h585v-195h-98l-283 -242l258 -307h134v-223h-297l-422 512h-4v-299h114v-213h-579z" />
<glyph unicode="l" d="M76 0v223h147v944h-147v224h465v-1168h135v-223h-600z" />
<glyph unicode="m" horiz-adv-x="2027" d="M41 0v223h180v520h-180v224h487v-78q162 94 312 94q201 0 293 -133q188 133 391 133q195 0 268 -106q37 -51 48 -106.5t11 -178.5v-369h193v-223h-502v567q0 152 -131 152q-98 0 -223 -66v-430h178v-223h-485v559q0 84 -30 122t-99 38q-92 0 -224 -66v-430h179v-223h-666 z" />
<glyph unicode="n" horiz-adv-x="1280" d="M76 0v223h149v520h-149v224h459v-88q145 104 284 104q82 0 148.5 -36t99.5 -99q43 -84 43 -240v-385h145v-223h-452v586q0 76 -21.5 106.5t-74.5 30.5q-84 0 -172 -64v-436h147v-223h-606z" />
<glyph unicode="o" horiz-adv-x="1173" d="M76 485.5q0 227.5 140 366.5t369.5 139t369 -139t139.5 -366.5t-139.5 -368t-369 -140.5t-369.5 140.5t-140 368zM393 481q0 -125 50.5 -194.5t140.5 -69.5q94 0 143 70.5t49 204.5q0 123 -51 192.5t-141 69.5q-92 0 -141.5 -71t-49.5 -202z" />
<glyph unicode="p" horiz-adv-x="1280" d="M31 -213h162v956h-136v224h445v-121q84 78 145.5 107.5t140.5 29.5q180 0 298 -144.5t118 -363.5q0 -221 -115.5 -359.5t-302.5 -138.5q-152 0 -284 121v-311h194v-223h-665v223zM500 477q0 -117 54 -186.5t144 -69.5t139.5 67.5t49.5 192.5q0 121 -50.5 187.5 t-140.5 66.5q-94 0 -145 -68.5t-51 -189.5z" />
<glyph unicode="q" horiz-adv-x="1280" d="M80 479q0 217 117.5 360.5t296.5 143.5q154 0 282 -137v121h477v-224h-168v-956h168v-223h-667v223h190v311q-129 -121 -282 -121q-180 0 -297 141.5t-117 360.5zM397 483q0 -123 49.5 -192.5t137.5 -69.5q90 0 142 70.5t52 195.5q0 115 -51 181.5t-139 66.5 q-90 0 -140.5 -66.5t-50.5 -185.5z" />
<glyph unicode="r" horiz-adv-x="917" d="M55 0v223h178v520h-167v224h450v-244h4q33 121 123 190.5t213 69.5h47v-293h-31q-205 0 -278 -135q-51 -92 -51 -213v-119h192v-223h-680z" />
<glyph unicode="s" horiz-adv-x="1044" d="M84 698q0 125 100.5 205t255.5 80q129 0 246 -47v31h221v-279h-221q-31 100 -213 100q-61 0 -97 -19t-36 -52t30.5 -47.5t137.5 -32.5q63 -10 102 -19q94 -14 176 -47q186 -74 187 -268q-2 -147 -106.5 -234t-282.5 -87q-168 0 -238 67v-49h-227v334h227q4 -70 61.5 -110 t151.5 -40q72 0 115 26t43 69q0 66 -148 90l-86 14q-199 35 -300 113.5t-99 201.5z" />
<glyph unicode="t" horiz-adv-x="704" d="M39 743v224h123v153l309 221v-374h178v-224h-178v-417q0 -59 15.5 -78t66.5 -19q39 0 96 19v-213q-117 -49 -233 -49q-143 0 -209 84q-27 33 -36 66.5t-9 101.5v505h-123z" />
<glyph unicode="u" horiz-adv-x="1280" d="M53 743v224h457v-602q0 -70 21.5 -97.5t76.5 -27.5q74 0 168 69v434h-147v224h458v-744h156v-223h-467v82q-139 -96 -280 -96q-139 0 -219 80.5t-80 220.5v456h-144z" />
<glyph unicode="v" horiz-adv-x="1173" d="M-4 743v224h586v-224h-119l151 -438l179 438h-127v224h512v-224h-138l-315 -757h-262l-328 757h-139z" />
<glyph unicode="w" horiz-adv-x="1665" d="M0 743v224h526v-224h-104l117 -358h4l194 582h256l191 -582h4l117 358h-109v224h467v-224h-121l-250 -757h-268l-188 569h-5l-184 -569h-270l-254 757h-123z" />
<glyph unicode="x" horiz-adv-x="1153" d="M53 0v223h140l208 250l-208 270h-140v224h371l174 -265l190 265h293v-224h-131l-194 -231l227 -289h131v-223h-371l-190 272l-201 -272h-299z" />
<glyph unicode="y" horiz-adv-x="1216" d="M10 743v224h580v-224h-113l160 -434l172 434h-125v224h508v-224h-137l-465 -1179h-338v223h186l64 172l-352 784h-140z" />
<glyph unicode="z" horiz-adv-x="1087" d="M72 0v203l569 569h-311v-149h-211v344h893v-203l-570 -569h365v165h205v-360h-940z" />
<glyph unicode="{" horiz-adv-x="788" d="M59 365v227q82 4 123 27.5t66 76.5q31 66 31 236v16v19q0 190 34 266q27 61 90 102q57 33 117 44.5t172 11.5h51v-228h-12q-121 0 -155.5 -24.5t-34.5 -112.5q-4 -289 -37 -377q-23 -59 -54.5 -96t-97.5 -76q115 -63 150 -168q37 -98 37 -379q0 -84 36.5 -110.5 t155.5 -26.5h12v-227h-53q-113 0 -173 11t-114 44q-63 39 -92 105q-33 80 -32 264v18v17q0 150 -24 219t-83 98q-35 19 -113 23z" />
<glyph unicode="|" horiz-adv-x="1251" d="M502 -37v1704h250v-1704h-250z" />
<glyph unicode="}" horiz-adv-x="788" d="M45 -207h14q119 0 155 26.5t36 110.5q0 279 37 379q41 111 151 170q-66 41 -98.5 77t-52.5 93q-37 98 -37 377q0 88 -35 112.5t-158 24.5h-12v228h53q113 0 173.5 -11.5t113.5 -44.5q63 -39 92 -102q33 -82 33 -266v-19v-16q0 -150 23.5 -219.5t82.5 -98.5 q35 -18 113 -22v-227q-82 -4 -123 -28t-63 -77q-33 -70 -33 -235v-17v-18q0 -190 -33 -266q-27 -63 -92 -103q-55 -33 -114.5 -44t-172.5 -11h-53v227z" />
<glyph unicode="~" horiz-adv-x="1193" d="M66 664v258q127 139 301 139q68 0 129 -17.5t200 -74.5q98 -41 158 -41q145 0 274 141v-270q-57 -59 -139 -96t-153 -37q-92 0 -254 69q-152 68 -242 68q-137 0 -274 -139z" />
<glyph unicode="&#xa1;" d="M199 647v334h336v-334h-336zM205 -16l86 524h145l78 -524v-377h-309v377z" />
<glyph unicode="&#xa2;" horiz-adv-x="1153" d="M63 471q0 219 143.5 364.5t358.5 145.5q55 0 115 -14l162 438h129l-172 -487l16 -11l29 -16l30 -23l11 -8v107h180v-398h-211q-53 96 -137 131l-170 -477q31 -8 57 -8q164 0 250 154l238 -107q-25 -66 -50.5 -99.5t-83.5 -80.5q-139 -113 -344 -113q-86 0 -151 17 l-154 -441h-135l174 480q-285 135 -285 446zM381 471q0 -104 61 -172l152 424q-98 -6 -155.5 -74.5t-57.5 -177.5z" />
<glyph unicode="&#xa3;" horiz-adv-x="1173" d="M115 219q0 98 63.5 165t157.5 67q66 0 153 -43q0 76 -36 180h-306v205h201l-10 20q-86 172 -86 279q0 143 117.5 233t306.5 90q174 0 274.5 -91t114.5 -265l-242 -29q-6 100 -42 145.5t-111 45.5q-59 0 -99.5 -33t-40.5 -82q0 -59 56 -168l32 -64l41 -81h259v-205h-213 v-19q0 -18 2 -40.5t2 -32.5q0 -104 -27 -183q88 -37 149 -37q131 0 146 173l143 -29v-41q0 -184 -76.5 -290.5t-207.5 -106.5q-141 0 -265 110q-104 -111 -223 -110q-102 0 -167.5 66.5t-65.5 170.5zM246 217q0 -37 26.5 -63.5t63.5 -26.5q35 0 67.5 23.5t49.5 62.5 q-72 86 -131 86q-33 0 -54.5 -23.5t-21.5 -58.5z" />
<glyph unicode="&#xa4;" horiz-adv-x="1366" d="M158 295l133 131q-45 80 -59.5 128t-14.5 128t14.5 126t59.5 116l-133 135l139 143l135 -135q72 47 119 61.5t129 14.5q80 0 129 -14.5t123 -61.5l135 135l141 -143l-135 -135q45 -76 59.5 -124t14.5 -128t-14.5 -128t-59.5 -118l135 -131l-141 -141l-135 131 q-76 -47 -125 -61.5t-129 -14.5q-82 0 -129 14.5t-117 61.5l-131 -131zM416 675.5q0 -110.5 77.5 -189t188.5 -78.5t189.5 78.5t78.5 189t-77.5 188.5t-188.5 78t-189.5 -78t-78.5 -188.5z" />
<glyph unicode="&#xa5;" horiz-adv-x="1429" d="M-4 1155v236h696v-236h-137l72 -121h264l74 121h-142v236h613v-236h-172l-78 -121h237v-141h-331l-66 -98h397v-142h-491l-27 -43v-374h193v-236h-752v236h197v374l-29 43h-506v142h408l-70 98h-338v141h240l-82 121h-170zM711 893l47 -78l47 78h-94z" />
<glyph unicode="&#xa6;" horiz-adv-x="1251" d="M502 -37v735h250v-735h-250zM502 934v733h250v-733h-250z" />
<glyph unicode="&#xa7;" horiz-adv-x="1067" d="M49 465q0 199 207 303q-162 119 -162 287q0 160 118 257t312 97q199 0 314.5 -100.5t119.5 -274.5h-264q-14 164 -178 164q-63 0 -103 -29.5t-40 -74.5q0 -63 49 -103.5t211 -107.5q203 -82 294 -171t91 -204q0 -127 -92 -223q-43 -47 -111 -90q156 -94 156 -277 q0 -158 -119 -258t-307.5 -100t-308 104.5t-125.5 276.5h264q4 -78 51 -125t123 -47q61 0 102 34.5t41 86t-46 89t-167 89.5l-80 34q-190 80 -276 177q-74 82 -74 186zM301 543q0 -53 39 -91t137 -83l195 -88q94 74 94 157q0 88 -158 156l-213 94q-94 -61 -94 -145z" />
<glyph unicode="&#xa8;" horiz-adv-x="681" d="M-20 1217q0 57 38.5 97t96 40t96.5 -40t39 -97q0 -55 -39 -95.5t-96.5 -40.5t-96 40.5t-38.5 95.5zM432 1217q0 57 39 97t96.5 40t96 -40t38.5 -97q0 -55 -38.5 -95.5t-96 -40.5t-96.5 40.5t-39 95.5z" />
<glyph unicode="&#xa9;" horiz-adv-x="1515" d="M-8 729.5q0 317.5 224 541.5t541.5 224t542 -224t224.5 -542q0 -315 -225.5 -540.5t-540.5 -225.5q-317 0 -541.5 224.5t-224.5 542zM141 729q0 -254 181.5 -434t435.5 -180t434 180t180 434q0 256 -180 436.5t-434 180.5t-435.5 -181.5t-181.5 -435.5zM381 723 q0 199 104.5 315.5t284.5 116.5q246 0 334 -244l-162 -39q-51 139 -178 140q-98 0 -152.5 -74t-54.5 -209q0 -133 52.5 -209t146.5 -76q137 0 188 172l160 -55q-39 -125 -125 -191.5t-211 -66.5q-176 0 -281.5 113.5t-105.5 306.5z" />
<glyph unicode="&#xaa;" horiz-adv-x="811" d="M86 989q0 86 71.5 141.5t184.5 55.5q57 0 129 -25l16 -4v35q0 45 -33.5 72.5t-86.5 27.5q-68 0 -115 -45l-162 27q74 139 307 139q291 0 291 -207v-256h100v-133h-301v45q-82 -53 -172 -53q-100 0 -164.5 51t-64.5 129zM279 1001.5q0 -32.5 24.5 -55t58.5 -22.5 q53 0 125 61v47l-12 6q-63 35 -104 35t-66.5 -19.5t-25.5 -52z" />
<glyph unicode="&#xab;" horiz-adv-x="1110" d="M10 483l232 484h297l-226 -484l226 -483h-297zM573 483l230 484h297l-226 -484l226 -483h-297z" />
<glyph unicode="&#xac;" horiz-adv-x="1368" d="M121 809v248h1124v-735h-248v487h-876z" />
<glyph unicode="&#xad;" horiz-adv-x="704" d="M68 348v270h559v-270h-559z" />
<glyph unicode="&#xae;" horiz-adv-x="1515" d="M-8 729.5q0 317.5 224 541.5t541.5 224t542 -224t224.5 -542q0 -315 -225.5 -540.5t-540.5 -225.5q-317 0 -541.5 224.5t-224.5 542zM141 729q0 -254 181.5 -434t435.5 -180q256 0 436 179t180 435t-180 436.5t-436 180.5q-254 0 -435.5 -181.5t-181.5 -435.5zM412 319 v814h288h97q131 0 201.5 -59.5t70.5 -168.5q0 -92 -58.5 -153.5t-160.5 -73.5v-4q53 -18 80.5 -49t93.5 -142l94 -164h-203l-67 134q-63 121 -111.5 160.5t-130.5 39.5h-31v-334h-163zM575 782h68h66q102 2 144 28t42 85q0 111 -168 111h-84h-68v-224z" />
<glyph unicode="&#xaf;" horiz-adv-x="681" d="M18 1108v184h646v-184h-646z" />
<glyph unicode="&#xb0;" horiz-adv-x="811" d="M59 1071q0 143 101.5 243.5t245 100.5t245 -100.5t101.5 -243.5t-101.5 -244.5t-245 -101.5t-245 101.5t-101.5 244.5zM190 1071q0 -88 62.5 -151.5t153 -63.5t153 63.5t62.5 151.5t-62.5 151.5t-153 63.5t-153 -63.5t-62.5 -151.5z" />
<glyph unicode="&#xb1;" horiz-adv-x="1368" d="M121 -66v248h1124v-248h-1124zM121 743v248h438v439h248v-439h438v-248h-438v-438h-248v438h-438z" />
<glyph unicode="&#xb2;" horiz-adv-x="681" d="M47 725q0 164 162 291l65 51q66 51 90.5 85t24.5 71q0 31 -19.5 50t-47.5 19q-80 0 -86 -151l-177 8q2 115 45 170q70 96 232 96q117 0 190.5 -56t73.5 -147q0 -68 -37 -111.5t-153 -115.5q-88 -55 -124 -91t-50 -87h215v92h155l-8 -219h-549q0 10 -1 25.5t-1 19.5z" />
<glyph unicode="&#xb3;" horiz-adv-x="681" d="M45 909l184 13q0 -125 97 -125q41 0 67.5 27.5t26.5 72.5q0 98 -105 98h-36h-13v131q135 0 135 88q0 33 -21.5 53.5t-53.5 20.5q-76 0 -76 -84v-12l-178 12q6 102 75.5 156.5t192.5 54.5q119 0 190.5 -52t71.5 -140q0 -106 -113 -162q143 -45 144 -170q0 -100 -81 -160.5 t-214 -60.5q-268 -1 -293 239z" />
<glyph unicode="&#xb4;" horiz-adv-x="681" d="M186 1063l140 299h313l-274 -299h-179z" />
<glyph unicode="&#xb5;" horiz-adv-x="1259" d="M152 -434v1401h278v-385q0 -240 64 -318q53 -63 133 -63q63 0 116.5 44t71.5 111q18 74 19 222v389h282v-967h-262v129h-4q-74 -154 -211 -154q-70 0 -117 35t-88 119h-4v-563h-278z" />
<glyph unicode="&#xb6;" horiz-adv-x="1130" d="M-2 975q0 109 44 200t120 140q78 51 138 63.5t232 12.5h596v-261h-112v-1564h-238v1564h-143v-1564h-244v1003q-186 14 -289.5 121t-103.5 285z" />
<glyph unicode="&#xb7;" horiz-adv-x="747" d="M205 647v334h336v-334h-336z" />
<glyph unicode="&#xb8;" horiz-adv-x="681" d="M39 -285l14 -2q98 -10 174 -10t121 25.5t45 68.5q0 39 -34.5 61.5t-94.5 22.5q-57 0 -131 -18l27 98q80 27 168 27q115 0 185.5 -52.5t70.5 -136.5q-2 -100 -96.5 -159.5t-254.5 -59.5q-121 0 -194 17v118z" />
<glyph unicode="&#xb9;" horiz-adv-x="681" d="M127 1276v127h324v-596h108v-127h-426v127h115v469h-121z" />
<glyph unicode="&#xba;" horiz-adv-x="768" d="M51 1110q0 135 91 219t240.5 84t241 -84t91.5 -221q0 -135 -91.5 -219t-241 -84t-240.5 84t-91 221zM258 1108q0 -76 33 -118t92 -42t92 42t33 120q0 76 -33 118t-92 42t-92 -42t-33 -120z" />
<glyph unicode="&#xbb;" horiz-adv-x="1110" d="M14 0l226 483l-226 484h295l232 -484l-232 -483h-295zM573 0l226 483l-226 484h295l232 -484l-232 -483h-295z" />
<glyph unicode="&#xbc;" horiz-adv-x="1898" d="M186 1276v127h326v-596h109v-127h-426v127h112v469h-121zM356 0l1008 1391h178l-1007 -1391h-179zM1151 293l358 442h181v-430h79v-110h-79v-78h69v-117h-354v117h92v78h-299l-4 10q-20 51 -43 88zM1323 305h174v211h-4z" />
<glyph unicode="&#xbd;" horiz-adv-x="1898" d="M186 1276v127h326v-596h109v-127h-426v127h112v469h-121zM356 0l1008 1391h178l-1007 -1391h-179zM1198 43q0 164 162 291l65 53q66 51 90.5 85t24.5 71q0 31 -18.5 49t-48.5 18q-80 0 -87 -149l-176 8q2 115 45 170q70 96 232 96q117 0 190.5 -56t73.5 -147 q0 -68 -37 -112.5t-153 -116.5q-88 -53 -124 -89t-51 -87h216v92h155l-8 -219h-549q0 10 -1 24.5t-1 18.5z" />
<glyph unicode="&#xbe;" horiz-adv-x="1898" d="M117 909l182 13q4 -125 96 -125q43 0 70 27.5t27 72.5q0 98 -107 98h-35h-12v131q133 0 133 88q0 33 -21.5 53.5t-54.5 20.5q-74 0 -73 -84v-12l-181 12q6 102 76 156.5t193 54.5q121 0 192.5 -52t71.5 -140q0 -106 -115 -162q143 -45 143 -170q0 -100 -79.5 -160.5 t-212.5 -60.5q-270 -1 -293 239zM356 0l1008 1391h178l-1007 -1391h-179zM1151 293l358 442h181v-430h79v-110h-79v-78h69v-117h-354v117h92v78h-299l-4 10q-18 51 -43 88zM1323 305h174v211h-4z" />
<glyph unicode="&#xbf;" horiz-adv-x="1153" d="M92 -27q0 168 109.5 274.5t279.5 106.5q23 0 43 -2l33 146h143l29 -367q-49 16 -102 16q-96 0 -155.5 -51t-59.5 -133t52 -133t136 -51q82 0 129 44t47 122q0 23 -4 43h309v-13q0 -186 -135 -296.5t-364 -110.5q-225 0 -357.5 109.5t-132.5 295.5zM455 647v334h333v-334 h-333z" />
<glyph unicode="&#xc0;" horiz-adv-x="1429" d="M-4 0v236h172l272 919h-186v236h907v-236h-186l291 -919h168v-236h-684v236h178l-68 237h-360l-74 -237h186v-236h-616zM418 1784h313l139 -299h-178zM563 678h242l-115 420h-4z" />
<glyph unicode="&#xc1;" horiz-adv-x="1429" d="M-4 0v236h172l272 919h-186v236h907v-236h-186l291 -919h168v-236h-684v236h178l-68 237h-360l-74 -237h186v-236h-616zM561 1485l139 299h314l-275 -299h-178zM563 678h242l-115 420h-4z" />
<glyph unicode="&#xc2;" horiz-adv-x="1429" d="M-4 0v236h172l272 919h-186v236h907v-236h-186l291 -919h168v-236h-684v236h178l-68 237h-360l-74 -237h186v-236h-616zM377 1489l211 295h260l207 -295h-226l-116 149l-109 -149h-227zM563 678h242l-115 420h-4z" />
<glyph unicode="&#xc3;" horiz-adv-x="1429" d="M-4 0v236h172l272 919h-186v236h907v-236h-186l291 -919h168v-236h-684v236h178l-68 237h-360l-74 -237h186v-236h-616zM362 1497v31q0 104 48.5 163.5t134.5 59.5q61 0 164 -45q88 -41 133 -41q70 0 82 88h129q0 -252 -176 -252q-41 0 -66 6t-109 39q-98 39 -143 39 q-70 0 -70 -80v-8h-127zM563 678h242l-115 420h-4z" />
<glyph unicode="&#xc4;" horiz-adv-x="1429" d="M-4 0v236h172l272 919h-186v236h907v-236h-186l291 -919h168v-236h-684v236h178l-68 237h-360l-74 -237h186v-236h-616zM354 1638q0 57 39 97.5t96.5 40.5t96.5 -40t39 -98q0 -55 -39 -95t-96.5 -40t-96.5 40t-39 95zM563 678h242l-115 420h-4zM807 1638q0 57 39 97.5 t96 40.5t96 -40t39 -98q0 -55 -39 -95t-96 -40t-96 40t-39 95z" />
<glyph unicode="&#xc5;" horiz-adv-x="1429" d="M-4 0v236h172l272 919h-186v236h907v-236h-186l291 -919h168v-236h-684v236h178l-68 237h-360l-74 -237h186v-236h-616zM520 1683q0 82 57.5 139.5t139.5 57.5t138 -57.5t56 -139.5q0 -80 -57 -137t-137 -57q-82 0 -139.5 57t-57.5 137zM563 678h242l-115 420h-4z M627 1686q0 -37 26.5 -64t63.5 -27t62.5 26t25.5 62.5t-25.5 63.5t-62.5 27t-63.5 -26.5t-26.5 -61.5z" />
<glyph unicode="&#xc6;" horiz-adv-x="2027" d="M-6 0v236h145l400 919h-209v236h1624v-441h-266v205h-418v-317h338v-236h-338v-366h418v210h266v-446h-1204v236h157v366h-334l-163 -366h163v-236h-579zM659 807h248v371h-90z" />
<glyph unicode="&#xc7;" horiz-adv-x="1599" d="M76 696q0 319 202.5 518t530.5 199q248 0 416 -131v109h235v-490h-235q-98 264 -346 264q-186 0 -300 -129t-114 -342q0 -203 109.5 -329.5t283.5 -126.5q143 0 244.5 95t140.5 265l275 -131q-29 -94 -51.5 -139t-67.5 -103q-190 -242 -568 -241q-350 0 -552.5 191 t-202.5 521zM498 -285l14 -2q98 -10 174 -10t121 25.5t45 68.5q0 39 -35 61.5t-94 22.5q-57 0 -131 -18l26 98q80 27 168 27q115 0 185.5 -52.5t70.5 -136.5q-2 -100 -96 -159.5t-254 -59.5q-121 0 -194 17v118z" />
<glyph unicode="&#xc8;" horiz-adv-x="1366" d="M68 0v236h165v919h-165v236h1224v-441h-264v205h-432v-319h348v-236h-348v-364h432v206h264v-442h-1224zM385 1784h313l140 -299h-179z" />
<glyph unicode="&#xc9;" horiz-adv-x="1366" d="M68 0v236h165v919h-165v236h1224v-441h-264v205h-432v-319h348v-236h-348v-364h432v206h264v-442h-1224zM528 1485l140 299h313l-274 -299h-179z" />
<glyph unicode="&#xca;" horiz-adv-x="1366" d="M68 0v236h165v919h-165v236h1224v-441h-264v205h-432v-319h348v-236h-348v-364h432v206h264v-442h-1224zM344 1489l211 295h260l207 -295h-225l-117 149l-109 -149h-227z" />
<glyph unicode="&#xcb;" horiz-adv-x="1366" d="M68 0v236h165v919h-165v236h1224v-441h-264v205h-432v-319h348v-236h-348v-364h432v206h264v-442h-1224zM322 1638q0 57 38.5 97.5t96 40.5t96.5 -40t39 -98q0 -55 -39 -95t-96.5 -40t-96 40t-38.5 95zM774 1638q0 57 39 97.5t96.5 40.5t96 -40t38.5 -98q0 -55 -38.5 -95 t-96 -40t-96.5 40t-39 95z" />
<glyph unicode="&#xcc;" horiz-adv-x="874" d="M41 0v236h211v919h-211v236h786v-236h-213v-919h213v-236h-786zM139 1784h314l139 -299h-178z" />
<glyph unicode="&#xcd;" horiz-adv-x="874" d="M41 0v236h211v919h-211v236h786v-236h-213v-919h213v-236h-786zM283 1485l139 299h313l-274 -299h-178z" />
<glyph unicode="&#xce;" horiz-adv-x="874" d="M41 0v236h211v919h-211v236h786v-236h-213v-919h213v-236h-786zM98 1489l211 295h260l207 -295h-225l-117 149l-108 -149h-228z" />
<glyph unicode="&#xcf;" horiz-adv-x="874" d="M41 0v236h211v919h-211v236h786v-236h-213v-919h213v-236h-786zM76 1638q0 57 39 97.5t96 40.5t96 -40t39 -98q0 -55 -39 -95t-96 -40t-96 40t-39 95zM528 1638q0 57 39 97.5t96.5 40.5t96.5 -40t39 -98q0 -55 -39 -95t-96.5 -40t-96.5 40t-39 95z" />
<glyph unicode="&#xd0;" horiz-adv-x="1642" d="M55 602v186h224v367h-211v236h659q199 0 300 -17.5t198 -68.5q158 -86 247 -248t89 -365q0 -184 -77 -341.5t-206 -241.5q-113 -74 -199 -92.5t-309 -18.5l-702 2v236h211v366h-224zM639 236h88q129 0 180 11t115 54q160 109 160 389q0 272 -158 393q-59 43 -119.5 57.5 t-177.5 14.5h-88v-367h258v-186h-258v-366z" />
<glyph unicode="&#xd1;" horiz-adv-x="1622" d="M61 0v236h185v919h-185v236h582l510 -869h4v633h-182v236h624v-236h-194v-1165h-311l-594 1032h-4v-786h174v-236h-609zM459 1497v31q0 104 48 163.5t134 59.5q61 0 164 -45q88 -41 133 -41q70 0 82 88h129q0 -252 -176 -252q-41 0 -65.5 6t-108.5 39q-98 39 -144 39 q-70 0 -69 -80v-8h-127z" />
<glyph unicode="&#xd2;" horiz-adv-x="1748" d="M100 698.5q0 319.5 214 517t560.5 197.5t559.5 -197.5t213 -517t-213 -517t-559.5 -197.5t-560.5 197.5t-214 517zM492 692q0 -203 106.5 -329.5t275.5 -126.5q172 0 277.5 128t105.5 334.5t-105 333.5t-278 127q-174 0 -278 -128t-104 -339zM578 1784h313l139 -299h-178 z" />
<glyph unicode="&#xd3;" horiz-adv-x="1748" d="M100 698.5q0 319.5 214 517t560.5 197.5t559.5 -197.5t213 -517t-213 -517t-559.5 -197.5t-560.5 197.5t-214 517zM492 692q0 -203 106.5 -329.5t275.5 -126.5q172 0 277.5 128t105.5 334.5t-105 333.5t-278 127q-174 0 -278 -128t-104 -339zM721 1485l139 299h314 l-275 -299h-178z" />
<glyph unicode="&#xd4;" horiz-adv-x="1748" d="M100 698.5q0 319.5 214 517t560.5 197.5t559.5 -197.5t213 -517t-213 -517t-559.5 -197.5t-560.5 197.5t-214 517zM492 692q0 -203 106.5 -329.5t275.5 -126.5q172 0 277.5 128t105.5 334.5t-105 333.5t-278 127q-174 0 -278 -128t-104 -339zM537 1489l211 295h260 l206 -295h-225l-117 149l-108 -149h-227z" />
<glyph unicode="&#xd5;" horiz-adv-x="1748" d="M100 698.5q0 319.5 214 517t560.5 197.5t559.5 -197.5t213 -517t-213 -517t-559.5 -197.5t-560.5 197.5t-214 517zM492 692q0 -203 106.5 -329.5t275.5 -126.5q172 0 277.5 128t105.5 334.5t-105 333.5t-278 127q-174 0 -278 -128t-104 -339zM522 1497v31q0 104 48 163.5 t135 59.5q61 0 163 -45q88 -41 133 -41q70 0 82 88h129q0 -252 -176 -252q-41 0 -65.5 6t-108.5 39q-98 39 -143 39q-70 0 -70 -80v-8h-127z" />
<glyph unicode="&#xd6;" horiz-adv-x="1748" d="M100 698.5q0 319.5 214 517t560.5 197.5t559.5 -197.5t213 -517t-213 -517t-559.5 -197.5t-560.5 197.5t-214 517zM492 692q0 -203 106.5 -329.5t275.5 -126.5q172 0 277.5 128t105.5 334.5t-105 333.5t-278 127q-174 0 -278 -128t-104 -339zM514 1638q0 57 39 97.5 t96.5 40.5t96 -40t38.5 -98q0 -55 -38.5 -95t-96 -40t-96.5 40t-39 95zM967 1638q0 57 38.5 97.5t96 40.5t96.5 -40t39 -98q0 -55 -39 -95t-96.5 -40t-96 40t-38.5 95z" />
<glyph unicode="&#xd7;" horiz-adv-x="1366" d="M147 1040l177 174l360 -360l360 360l177 -174l-361 -362l359 -356l-177 -175l-356 357l-358 -357l-176 175l358 356z" />
<glyph unicode="&#xd8;" horiz-adv-x="1748" d="M96 698q0 319 214 517t560 198q260 0 439 -108l121 137l112 -86l-121 -137l6 -5q215 -203 215 -516q0 -319 -212.5 -516.5t-559.5 -197.5q-260 0 -436 106l-137 -156l-117 78l142 162q-226 207 -226 524zM487 700q0 -160 60 -270l561 643q-100 86 -238 86 q-170 0 -276.5 -127t-106.5 -332zM635 322q104 -86 235 -86q172 0 277.5 128t105.5 334q0 156 -57 265z" />
<glyph unicode="&#xd9;" horiz-adv-x="1386" d="M31 1155v236h663v-236h-137v-606q0 -152 16 -205q16 -47 61.5 -75.5t102.5 -28.5q111 0 160 75q20 33 26.5 80t6.5 170v590h-135v236h553v-236h-170v-674q0 -158 -12.5 -212t-63.5 -113q-129 -152 -404 -152q-313 0 -434 178q-47 72 -58 130.5t-11 236.5v606h-164z M395 1784h314l139 -299h-178z" />
<glyph unicode="&#xda;" horiz-adv-x="1386" d="M31 1155v236h663v-236h-137v-606q0 -152 16 -205q16 -47 61.5 -75.5t102.5 -28.5q111 0 160 75q20 33 26.5 80t6.5 170v590h-135v236h553v-236h-170v-674q0 -158 -12.5 -212t-63.5 -113q-129 -152 -404 -152q-313 0 -434 178q-47 72 -58 130.5t-11 236.5v606h-164z M539 1485l139 299h313l-274 -299h-178z" />
<glyph unicode="&#xdb;" horiz-adv-x="1386" d="M31 1155v236h663v-236h-137v-606q0 -152 16 -205q16 -47 61.5 -75.5t102.5 -28.5q111 0 160 75q20 33 26.5 80t6.5 170v590h-135v236h553v-236h-170v-674q0 -158 -12.5 -212t-63.5 -113q-129 -152 -404 -152q-313 0 -434 178q-47 72 -58 130.5t-11 236.5v606h-164z M354 1489l211 295h260l207 -295h-225l-117 149l-108 -149h-228z" />
<glyph unicode="&#xdc;" horiz-adv-x="1386" d="M31 1155v236h663v-236h-137v-606q0 -152 16 -205q16 -47 61.5 -75.5t102.5 -28.5q111 0 160 75q20 33 26.5 80t6.5 170v590h-135v236h553v-236h-170v-674q0 -158 -12.5 -212t-63.5 -113q-129 -152 -404 -152q-313 0 -434 178q-47 72 -58 130.5t-11 236.5v606h-164z M332 1638q0 57 39 97.5t96 40.5t96 -40t39 -98q0 -55 -39 -95t-96 -40t-96 40t-39 95zM784 1638q0 57 39 97.5t96.5 40.5t96.5 -40t39 -98q0 -55 -39 -95t-96.5 -40t-96.5 40t-39 95z" />
<glyph unicode="&#xdd;" horiz-adv-x="1429" d="M-4 1155v236h696v-236h-137l203 -340l207 340h-142v236h613v-236h-172l-359 -545v-374h193v-236h-752v236h197v374l-377 545h-170zM561 1485l139 299h314l-275 -299h-178z" />
<glyph unicode="&#xde;" horiz-adv-x="1366" d="M59 0v236h179v919h-179v236h734v-236h-195v-41h195q244 0 387 -113.5t143 -306.5q0 -119 -61.5 -217t-163.5 -143q-82 -37 -148.5 -47.5t-218.5 -10.5h-133v-40h195v-236h-734zM598 498h55q113 0 181 24q111 41 110 174q0 109 -61.5 153t-216.5 44h-68v-395z" />
<glyph unicode="&#xdf;" horiz-adv-x="1323" d="M47 0v223h162v701q0 117 10 174t41 110q41 80 141 140q113 68 279 67q219 0 347 -90t128 -244q0 -201 -213 -288q279 -92 279 -385q0 -195 -101.5 -308.5t-277.5 -113.5q-76 0 -152 30v207q29 -12 62 -12q158 0 157 203q0 244 -219 252v225q72 4 114 45t42 106 q0 70 -46 115t-116 45q-98 0 -133 -64.5t-35 -246.5v-668h76v-223h-545z" />
<glyph unicode="&#xe0;" horiz-adv-x="1193" d="M84 289q0 141 111.5 233t283.5 92q92 0 221 -47v58q0 76 -50 123t-134 47q-100 0 -176 -78l-250 45q113 231 469 231q289 0 389 -139q39 -51 50.5 -105.5t11.5 -173.5v-352h157v-223h-467v76q-127 -90 -264 -90q-152 0 -252 86t-100 217zM299 1362h313l140 -299h-179z M383 307q0 -55 36 -92t89 -37q82 0 192 101v79l-16 11q-102 59 -162 59q-61 0 -100 -34t-39 -87z" />
<glyph unicode="&#xe1;" horiz-adv-x="1193" d="M84 289q0 141 111.5 233t283.5 92q92 0 221 -47v58q0 76 -50 123t-134 47q-100 0 -176 -78l-250 45q113 231 469 231q289 0 389 -139q39 -51 50.5 -105.5t11.5 -173.5v-352h157v-223h-467v76q-127 -90 -264 -90q-152 0 -252 86t-100 217zM383 307q0 -55 36 -92t89 -37 q82 0 192 101v79l-16 11q-102 59 -162 59q-61 0 -100 -34t-39 -87zM442 1063l140 299h313l-274 -299h-179z" />
<glyph unicode="&#xe2;" horiz-adv-x="1193" d="M84 289q0 141 111.5 233t283.5 92q92 0 221 -47v58q0 76 -50 123t-134 47q-100 0 -176 -78l-250 45q113 231 469 231q289 0 389 -139q39 -51 50.5 -105.5t11.5 -173.5v-352h157v-223h-467v76q-127 -90 -264 -90q-152 0 -252 86t-100 217zM258 1067l211 295h260l207 -295 h-225l-117 150l-109 -150h-227zM383 307q0 -55 36 -92t89 -37q82 0 192 101v79l-16 11q-102 59 -162 59q-61 0 -100 -34t-39 -87z" />
<glyph unicode="&#xe3;" horiz-adv-x="1193" d="M84 289q0 141 111.5 233t283.5 92q92 0 221 -47v58q0 76 -50 123t-134 47q-100 0 -176 -78l-250 45q113 231 469 231q289 0 389 -139q39 -51 50.5 -105.5t11.5 -173.5v-352h157v-223h-467v76q-127 -90 -264 -90q-152 0 -252 86t-100 217zM244 1075v31q0 104 48 163.5 t134 59.5q61 0 164 -45q88 -41 133 -41q70 0 82 88h129q0 -252 -176 -252q-41 0 -65.5 6.5t-108.5 38.5q-98 39 -144 39q-70 0 -69 -80v-8h-127zM383 307q0 -55 36 -92t89 -37q82 0 192 101v79l-16 11q-102 59 -162 59q-61 0 -100 -34t-39 -87z" />
<glyph unicode="&#xe4;" horiz-adv-x="1193" d="M84 289q0 141 111.5 233t283.5 92q92 0 221 -47v58q0 76 -50 123t-134 47q-100 0 -176 -78l-250 45q113 231 469 231q289 0 389 -139q39 -51 50.5 -105.5t11.5 -173.5v-352h157v-223h-467v76q-127 -90 -264 -90q-152 0 -252 86t-100 217zM236 1217q0 57 38.5 97t96 40 t96.5 -40t39 -97q0 -55 -39 -95.5t-96.5 -40.5t-96 40.5t-38.5 95.5zM383 307q0 -55 36 -92t89 -37q82 0 192 101v79l-16 11q-102 59 -162 59q-61 0 -100 -34t-39 -87zM688 1217q0 57 39 97t96.5 40t96 -40t38.5 -97q0 -55 -38.5 -95.5t-96 -40.5t-96.5 40.5t-39 95.5z" />
<glyph unicode="&#xe5;" horiz-adv-x="1193" d="M84 289q0 141 111.5 233t283.5 92q92 0 221 -47v58q0 76 -50 123t-134 47q-100 0 -176 -78l-250 45q113 231 469 231q289 0 389 -139q39 -51 50.5 -105.5t11.5 -173.5v-352h157v-223h-467v76q-127 -90 -264 -90q-152 0 -252 86t-100 217zM383 307q0 -55 36 -92t89 -37 q82 0 192 101v79l-16 11q-102 59 -162 59q-61 0 -100 -34t-39 -87zM401 1262q0 82 57.5 139t139.5 57t138.5 -57.5t56.5 -138.5q0 -80 -57.5 -137.5t-137.5 -57.5q-82 0 -139.5 57.5t-57.5 137.5zM508 1264q0 -37 26.5 -63.5t63.5 -26.5t62.5 25.5t25.5 62t-25.5 63.5 t-62.5 27t-63.5 -26.5t-26.5 -61.5z" />
<glyph unicode="&#xe6;" horiz-adv-x="1812" d="M119 291q0 145 103.5 235t269.5 90q111 0 231 -49q2 14 2 33q0 88 -51 139.5t-135 51.5q-90 0 -177 -72l-243 47q117 225 471 225q211 0 344 -94q123 94 299 94q233 0 372.5 -145.5t139.5 -388.5v-33h-711q10 -109 72.5 -173.5t157.5 -64.5q117 0 227 111l240 -74 q-70 -117 -195 -181.5t-281 -64.5q-289 0 -436 203q-102 -109 -189 -156t-181 -47q-143 0 -236.5 89.5t-93.5 224.5zM414 297q0 -53 29.5 -86t74.5 -33q86 0 205 109v71l-6 4q-106 70 -168 70q-57 0 -96 -39t-39 -96zM1036 594h396q-16 90 -70.5 140t-136.5 50 q-78 0 -129.5 -51t-59.5 -139z" />
<glyph unicode="&#xe7;" horiz-adv-x="1153" d="M66 485q0 217 138 357.5t351 140.5q152 0 295 -94v78h211v-392h-221q-74 162 -234 162q-102 0 -162.5 -66.5t-60.5 -181.5q0 -127 58.5 -197.5t160.5 -70.5q74 0 139.5 42t108.5 114l240 -107q-133 -293 -472 -293q-250 0 -401 139.5t-151 368.5zM274 -285l15 -2 q98 -10 174 -10t121 25.5t45 68.5q0 39 -35 61.5t-94 22.5q-57 0 -131 -18l26 98q80 27 168 27q115 0 185.5 -52.5t70.5 -136.5q-2 -100 -96 -159.5t-254 -59.5q-121 0 -195 17v118z" />
<glyph unicode="&#xe8;" horiz-adv-x="1173" d="M74 467q0 229 148.5 376.5t377.5 147.5q225 0 363.5 -149.5t138.5 -395.5v-26h-721q6 -82 29.5 -126t81.5 -79q57 -37 133 -37q61 0 109 24.5t116 90.5l240 -78q-55 -88 -142 -145q-143 -92 -330 -93q-250 0 -397 132.5t-147 357.5zM289 1362h313l139 -299h-178zM385 592 h406q-12 90 -67.5 142t-139.5 52q-172 1 -199 -194z" />
<glyph unicode="&#xe9;" horiz-adv-x="1173" d="M74 467q0 229 148.5 376.5t377.5 147.5q225 0 363.5 -149.5t138.5 -395.5v-26h-721q6 -82 29.5 -126t81.5 -79q57 -37 133 -37q61 0 109 24.5t116 90.5l240 -78q-55 -88 -142 -145q-143 -92 -330 -93q-250 0 -397 132.5t-147 357.5zM385 592h406q-12 90 -67.5 142 t-139.5 52q-172 1 -199 -194zM432 1063l139 299h314l-275 -299h-178z" />
<glyph unicode="&#xea;" horiz-adv-x="1173" d="M74 467q0 229 148.5 376.5t377.5 147.5q225 0 363.5 -149.5t138.5 -395.5v-26h-721q6 -82 29.5 -126t81.5 -79q57 -37 133 -37q61 0 109 24.5t116 90.5l240 -78q-55 -88 -142 -145q-143 -92 -330 -93q-250 0 -397 132.5t-147 357.5zM248 1067l211 295h260l207 -295h-226 l-116 150l-109 -150h-227zM385 592h406q-12 90 -67.5 142t-139.5 52q-172 1 -199 -194z" />
<glyph unicode="&#xeb;" horiz-adv-x="1173" d="M74 467q0 229 148.5 376.5t377.5 147.5q225 0 363.5 -149.5t138.5 -395.5v-26h-721q6 -82 29.5 -126t81.5 -79q57 -37 133 -37q61 0 109 24.5t116 90.5l240 -78q-55 -88 -142 -145q-143 -92 -330 -93q-250 0 -397 132.5t-147 357.5zM225 1217q0 57 39 97t96.5 40 t96.5 -40t39 -97q0 -55 -39 -95.5t-96.5 -40.5t-96.5 40.5t-39 95.5zM385 592h406q-12 90 -67.5 142t-139.5 52q-172 1 -199 -194zM678 1217q0 57 39 97t96 40t96 -40t39 -97q0 -55 -39 -95.5t-96 -40.5t-96 40.5t-39 95.5z" />
<glyph unicode="&#xec;" d="M66 1362h313l139 -299h-178zM88 0v223h145v520h-145v224h459v-744h141v-223h-600z" />
<glyph unicode="&#xed;" d="M88 0v223h145v520h-145v224h459v-744h141v-223h-600zM209 1063l139 299h314l-275 -299h-178z" />
<glyph unicode="&#xee;" d="M25 1067l211 295h260l206 -295h-225l-117 150l-108 -150h-227zM88 0v223h145v520h-145v224h459v-744h141v-223h-600z" />
<glyph unicode="&#xef;" d="M2 1217q0 57 39 97t96.5 40t96 -40t38.5 -97q0 -55 -38.5 -95.5t-96 -40.5t-96.5 40.5t-39 95.5zM88 0v223h145v520h-145v224h459v-744h141v-223h-600zM455 1217q0 57 38.5 97t96 40t96.5 -40t39 -97q0 -55 -39 -95.5t-96.5 -40.5t-96 40.5t-38.5 95.5z" />
<glyph unicode="&#xf0;" horiz-adv-x="1173" d="M82 489q0 209 135 357.5t326 148.5q88 0 182 -51l4 4q-74 127 -199 236l-305 -127l-67 76l284 120q-63 45 -141 93l96 69q113 -39 213 -96l232 96l69 -76l-204 -86q96 -68 144 -112.5t107 -122.5q154 -207 154 -453q0 -266 -143.5 -424.5t-386.5 -158.5 q-221 0 -360.5 141t-139.5 366zM399 506q0 -283 193 -283q94 0 149.5 75t55.5 200q0 121 -52.5 189.5t-144.5 68.5q-88 0 -144.5 -69.5t-56.5 -180.5z" />
<glyph unicode="&#xf1;" horiz-adv-x="1280" d="M76 0v223h149v520h-149v224h459v-88q145 104 284 104q82 0 148.5 -36t99.5 -99q43 -84 43 -240v-385h145v-223h-452v586q0 76 -21.5 106.5t-74.5 30.5q-84 0 -172 -64v-436h147v-223h-606zM287 1075v31q0 104 48 163.5t134 59.5q61 0 164 -45q88 -41 133 -41q70 0 82 88 h129q0 -252 -176 -252q-41 0 -65.5 6.5t-108.5 38.5q-98 39 -144 39q-70 0 -69 -80v-8h-127z" />
<glyph unicode="&#xf2;" horiz-adv-x="1173" d="M76 485.5q0 227.5 140 366.5t369.5 139t369 -139t139.5 -366.5t-139.5 -368t-369 -140.5t-369.5 140.5t-140 368zM289 1362h313l139 -299h-178zM393 481q0 -125 50.5 -194.5t140.5 -69.5q94 0 143 70.5t49 204.5q0 123 -51 192.5t-141 69.5q-92 0 -141.5 -71t-49.5 -202z " />
<glyph unicode="&#xf3;" horiz-adv-x="1173" d="M76 485.5q0 227.5 140 366.5t369.5 139t369 -139t139.5 -366.5t-139.5 -368t-369 -140.5t-369.5 140.5t-140 368zM393 481q0 -125 50.5 -194.5t140.5 -69.5q94 0 143 70.5t49 204.5q0 123 -51 192.5t-141 69.5q-92 0 -141.5 -71t-49.5 -202zM432 1063l139 299h314 l-275 -299h-178z" />
<glyph unicode="&#xf4;" horiz-adv-x="1173" d="M76 485.5q0 227.5 140 366.5t369.5 139t369 -139t139.5 -366.5t-139.5 -368t-369 -140.5t-369.5 140.5t-140 368zM248 1067l211 295h260l207 -295h-226l-116 150l-109 -150h-227zM393 481q0 -125 50.5 -194.5t140.5 -69.5q94 0 143 70.5t49 204.5q0 123 -51 192.5 t-141 69.5q-92 0 -141.5 -71t-49.5 -202z" />
<glyph unicode="&#xf5;" horiz-adv-x="1173" d="M76 485.5q0 227.5 140 366.5t369.5 139t369 -139t139.5 -366.5t-139.5 -368t-369 -140.5t-369.5 140.5t-140 368zM233 1075v31q0 104 48.5 163.5t134.5 59.5q61 0 164 -45q88 -41 133 -41q70 0 82 88h129q0 -252 -176 -252q-41 0 -66 6.5t-109 38.5q-98 39 -143 39 q-70 0 -70 -80v-8h-127zM393 481q0 -125 50.5 -194.5t140.5 -69.5q94 0 143 70.5t49 204.5q0 123 -51 192.5t-141 69.5q-92 0 -141.5 -71t-49.5 -202z" />
<glyph unicode="&#xf6;" horiz-adv-x="1173" d="M76 485.5q0 227.5 140 366.5t369.5 139t369 -139t139.5 -366.5t-139.5 -368t-369 -140.5t-369.5 140.5t-140 368zM225 1217q0 57 39 97t96.5 40t96.5 -40t39 -97q0 -55 -39 -95.5t-96.5 -40.5t-96.5 40.5t-39 95.5zM393 481q0 -125 50.5 -194.5t140.5 -69.5 q94 0 143 70.5t49 204.5q0 123 -51 192.5t-141 69.5q-92 0 -141.5 -71t-49.5 -202zM678 1217q0 57 39 97t96 40t96 -40t39 -97q0 -55 -39 -95.5t-96 -40.5t-96 40.5t-39 95.5z" />
<glyph unicode="&#xf7;" horiz-adv-x="1368" d="M121 565v234h1124v-234h-1124zM535 266q0 61 43 105.5t104 44.5t104 -43t43 -105q0 -59 -43 -102t-104 -43t-104 42t-43 101zM535 1104q0 59 43 101t102 42t102 -43t43 -102.5t-43 -102.5t-102 -43t-102 43.5t-43 104.5z" />
<glyph unicode="&#xf8;" horiz-adv-x="1173" d="M82 483q0 223 142.5 365.5t365.5 142.5q162 0 289 -78l122 144l95 -84l-119 -137q125 -135 125 -353q0 -221 -142.5 -363.5t-365.5 -142.5q-166 0 -287 78l-121 -143l-96 80l119 139q-127 133 -127 352zM399 496q0 -66 19 -121l287 336q-45 43 -113 43 q-88 0 -140.5 -70.5t-52.5 -187.5zM481 258q43 -41 113 -41q88 0 140 69.5t52 188.5q0 59 -18 117z" />
<glyph unicode="&#xf9;" horiz-adv-x="1280" d="M53 743v224h457v-602q0 -70 21.5 -97.5t76.5 -27.5q74 0 168 69v434h-147v224h458v-744h156v-223h-467v82q-139 -96 -280 -96q-139 0 -219 80.5t-80 220.5v456h-144zM342 1362h313l140 -299h-179z" />
<glyph unicode="&#xfa;" horiz-adv-x="1280" d="M53 743v224h457v-602q0 -70 21.5 -97.5t76.5 -27.5q74 0 168 69v434h-147v224h458v-744h156v-223h-467v82q-139 -96 -280 -96q-139 0 -219 80.5t-80 220.5v456h-144zM485 1063l140 299h313l-274 -299h-179z" />
<glyph unicode="&#xfb;" horiz-adv-x="1280" d="M53 743v224h457v-602q0 -70 21.5 -97.5t76.5 -27.5q74 0 168 69v434h-147v224h458v-744h156v-223h-467v82q-139 -96 -280 -96q-139 0 -219 80.5t-80 220.5v456h-144zM301 1067l211 295h260l207 -295h-225l-117 150l-109 -150h-227z" />
<glyph unicode="&#xfc;" horiz-adv-x="1280" d="M53 743v224h457v-602q0 -70 21.5 -97.5t76.5 -27.5q74 0 168 69v434h-147v224h458v-744h156v-223h-467v82q-139 -96 -280 -96q-139 0 -219 80.5t-80 220.5v456h-144zM279 1217q0 57 38.5 97t96 40t96.5 -40t39 -97q0 -55 -39 -95.5t-96.5 -40.5t-96 40.5t-38.5 95.5z M731 1217q0 57 39 97t96.5 40t96 -40t38.5 -97q0 -55 -38.5 -95.5t-96 -40.5t-96.5 40.5t-39 95.5z" />
<glyph unicode="&#xfd;" horiz-adv-x="1216" d="M10 743v224h580v-224h-113l160 -434l172 434h-125v224h508v-224h-137l-465 -1179h-338v223h186l64 172l-352 784h-140zM455 1063l139 299h313l-274 -299h-178z" />
<glyph unicode="&#xfe;" horiz-adv-x="1280" d="M31 -213h162v1380h-136v224h445v-545q84 78 145.5 107.5t140.5 29.5q180 0 298 -143.5t118 -364.5t-116.5 -359.5t-301.5 -138.5q-152 0 -284 121v-311h194v-223h-665v223zM500 477q0 -117 54 -186.5t144 -69.5t139.5 67.5t49.5 192.5q0 121 -50.5 187.5t-140.5 66.5 q-94 0 -145 -68.5t-51 -189.5z" />
<glyph unicode="&#xff;" horiz-adv-x="1216" d="M10 743v224h580v-224h-113l160 -434l172 434h-125v224h508v-224h-137l-465 -1179h-338v223h186l64 172l-352 784h-140zM248 1217q0 57 39 97t96 40t96 -40t39 -97q0 -55 -39 -95.5t-96 -40.5t-96 40.5t-39 95.5zM700 1217q0 57 39 97t96.5 40t96.5 -40t39 -97 q0 -55 -39 -95.5t-96.5 -40.5t-96.5 40.5t-39 95.5z" />
<glyph unicode="&#x152;" horiz-adv-x="2068" d="M98 688q0 223 91.5 393t248.5 240q96 43 197.5 56.5t322.5 13.5h1037v-443h-266v207h-400v-321h322v-236h-322v-362h400v208h266v-444h-1075q-199 0 -279 12.5t-182 59.5q-127 61 -213 164q-148 178 -148 452zM475 698q0 -205 105 -333q59 -72 127.5 -99.5t205.5 -29.5 h54v919h-86q-129 0 -196 -26.5t-120 -100.5q-90 -121 -90 -330z" />
<glyph unicode="&#x153;" horiz-adv-x="2068" d="M61 481.5q0 225.5 157 367.5t407 142q238 0 417 -145q141 145 398 145q238 0 397.5 -151.5t159.5 -376.5q0 -25 -2 -41h-797q10 -109 86 -172.5t195 -63.5q166 0 264 111l242 -74q-55 -115 -189.5 -180.5t-314.5 -65.5q-289 0 -439 140q-176 -139 -421 -140 q-250 0 -405 139.5t-155 365zM379 489q0 -131 72.5 -219t179.5 -88q109 0 178.5 87t69.5 225q0 125 -71 207.5t-177 82.5q-109 0 -180.5 -85t-71.5 -210zM1206 594h477q-20 88 -85.5 139t-159.5 51q-90 0 -156 -53t-76 -137z" />
<glyph unicode="&#x178;" horiz-adv-x="1429" d="M-4 1155v236h696v-236h-137l203 -340l207 340h-142v236h613v-236h-172l-359 -545v-374h193v-236h-752v236h197v374l-377 545h-170zM354 1638q0 57 39 97.5t96.5 40.5t96.5 -40t39 -98q0 -55 -39 -95t-96.5 -40t-96.5 40t-39 95zM807 1638q0 57 39 97.5t96 40.5t96 -40 t39 -98q0 -55 -39 -95t-96 -40t-96 40t-39 95z" />
<glyph unicode="&#x2c6;" horiz-adv-x="681" d="M2 1067l211 295h260l207 -295h-225l-117 150l-109 -150h-227z" />
<glyph unicode="&#x2dc;" horiz-adv-x="681" d="M-12 1075v31q0 104 48 163.5t134 59.5q61 0 164 -45q88 -41 133 -41q70 0 82 88h129q0 -252 -176 -252q-41 0 -65.5 6.5t-108.5 38.5q-98 39 -144 39q-70 0 -69 -80v-8h-127z" />
<glyph unicode="&#x2000;" horiz-adv-x="940" />
<glyph unicode="&#x2001;" horiz-adv-x="1880" />
<glyph unicode="&#x2002;" horiz-adv-x="940" />
<glyph unicode="&#x2003;" horiz-adv-x="1880" />
<glyph unicode="&#x2004;" horiz-adv-x="626" />
<glyph unicode="&#x2005;" horiz-adv-x="468" />
<glyph unicode="&#x2006;" horiz-adv-x="313" />
<glyph unicode="&#x2007;" horiz-adv-x="313" />
<glyph unicode="&#x2008;" horiz-adv-x="233" />
<glyph unicode="&#x2009;" horiz-adv-x="374" />
<glyph unicode="&#x200a;" horiz-adv-x="104" />
<glyph unicode="&#x2010;" horiz-adv-x="704" d="M68 348v270h559v-270h-559z" />
<glyph unicode="&#x2011;" horiz-adv-x="704" d="M68 348v270h559v-270h-559z" />
<glyph unicode="&#x2012;" horiz-adv-x="704" d="M68 348v270h559v-270h-559z" />
<glyph unicode="&#x2013;" horiz-adv-x="1024" d="M-12 387v250h1048v-250h-1048z" />
<glyph unicode="&#x2014;" horiz-adv-x="2048" d="M-12 387v250h2072v-250h-2072z" />
<glyph unicode="&#x2018;" d="M209 686v311q0 150 31.5 230t105.5 121q51 27 86 35t111 8v-154q-88 -10 -126 -58.5t-38 -144.5v-12h164v-336h-334z" />
<glyph unicode="&#x2019;" d="M213 686v152q88 10 126 57t38 145v13h-164v338h334v-314q0 -152 -31 -230.5t-104 -117.5q-51 -27 -87 -35t-112 -8z" />
<glyph unicode="&#x201a;" d="M213 0v338h334v-313q0 -150 -31 -229t-104 -120q-51 -27 -87 -35t-112 -8v152q88 10 126 57t38 146v12h-164z" />
<glyph unicode="&#x201c;" horiz-adv-x="1216" d="M199 686v311q0 152 30.5 232t104.5 119q51 27 87 35t111 8v-154q-88 -10 -126.5 -58.5t-38.5 -144.5v-12h165v-336h-333zM711 686v311q0 152 30.5 232t104.5 119q51 27 87 35t111 8v-154q-88 -10 -126.5 -58.5t-38.5 -144.5v-12h165v-336h-333z" />
<glyph unicode="&#x201d;" horiz-adv-x="1216" d="M209 684v150q88 10 126 58t38 146v11h-164v335h334v-311q0 -150 -32 -228.5t-105 -119.5q-51 -27 -86 -34t-111 -7zM715 684v150q88 10 126 58t38 146v11h-164v335h334v-311q0 -150 -32 -228.5t-106 -119.5q-51 -27 -85.5 -34t-110.5 -7z" />
<glyph unicode="&#x201e;" horiz-adv-x="1216" d="M178 0v334h334v-309q0 -150 -30.5 -229t-104.5 -120q-51 -27 -87 -35t-112 -8v152q88 10 126 57t38 146v12h-164zM682 0v334h334v-309q0 -152 -31 -231t-106 -118q-51 -27 -86 -35t-111 -8v152q88 10 126 57t38 146v12h-164z" />
<glyph unicode="&#x2022;" d="M78 698.5q0 118.5 83 201.5t201.5 83t202.5 -83t84 -201.5t-84 -202.5t-202.5 -84t-201.5 84t-83 202.5z" />
<glyph unicode="&#x2026;" horiz-adv-x="2048" d="M174 0v336h334v-336h-334zM856 0v336h336v-336h-336zM1540 0v336h334v-336h-334z" />
<glyph unicode="&#x202f;" horiz-adv-x="374" />
<glyph unicode="&#x2039;" horiz-adv-x="555" d="M10 483l232 484h295l-226 -484l226 -483h-295z" />
<glyph unicode="&#x203a;" horiz-adv-x="555" d="M10 0l223 483l-223 484h295l232 -484l-232 -483h-295z" />
<glyph unicode="&#x205f;" horiz-adv-x="468" />
<glyph unicode="&#x2122;" horiz-adv-x="2048" d="M217 1323v143h664v-143h-246v-676h-166v676h-252zM979 647v819h260l147 -565h5l147 565h260v-819h-158v653h-4l-174 -653h-149l-172 653h-4v-653h-158z" />
<glyph unicode="&#xe000;" horiz-adv-x="965" d="M0 965h965v-965h-965v965z" />
<glyph unicode="&#xfb01;" horiz-adv-x="1280" d="M59 0v223h154v520h-154v224h154v69q0 180 123 279.5t342 99.5q178 0 277.5 -58.5t140.5 -189.5l-305 -32q-31 78 -136 77q-78 0 -106.5 -36.5t-28.5 -139.5v-69h576v-744h155v-223h-559v223h99v520h-271v-520h101v-223h-562z" />
<glyph unicode="&#xfb02;" horiz-adv-x="1280" d="M59 0v223h152v520h-152v224h152v73q0 174 124 274.5t337 100.5q98 0 190 -24h234v-1168h153v-223h-559v223h98v914q-39 76 -129 75q-78 0 -109.5 -43t-31.5 -151v-51h146v-224h-146v-520h103v-223h-562z" />
<glyph unicode="&#xfb03;" horiz-adv-x="2174" d="M1536 0v223h143v520h-143v224h457v-744h143v-223h-600zM1671 1245.5q0 69.5 49 119.5t121 50q70 0 119 -50t49 -119.5t-49 -120t-119 -50.5q-72 0 -121 50.5t-49 120zM784 0v223h142v520h-131v224h131v90q0 166 101 262t273 96q223 0 324 -135l-223 -176q-18 57 -39 80.5 t-49 23.5q-78 0 -78 -135v-106h152v-224h-152v-520h152v-223h-603zM59 0v223h142v520h-131v224h131v90q0 166 101 262t273 96q223 0 324 -135l-223 -176q-18 57 -39 80.5t-49 23.5q-78 0 -78 -135v-106h152v-224h-152v-520h152v-223h-603z" />
<glyph unicode="&#xfb04;" horiz-adv-x="2174" d="M1526 0v223h147v944h-147v224h465v-1168h135v-223h-600zM784 0v223h142v520h-131v224h131v90q0 166 101 262t273 96q223 0 324 -135l-223 -176q-18 57 -39 80.5t-49 23.5q-78 0 -78 -135v-106h152v-224h-152v-520h152v-223h-603zM59 0v223h142v520h-131v224h131v90 q0 166 101 262t273 96q223 0 324 -135l-223 -176q-18 57 -39 80.5t-49 23.5q-78 0 -78 -135v-106h152v-224h-152v-520h152v-223h-603z" />
</font>
</defs>
</svg>
